# xmcd
#
# Track frame offsets: 
#        150
#        14201
#        38077
#        54110
#        76685
#        101038
#        124519
#        147435
#        167922
#        186906
#        213593
#
# Disc length: 3004 seconds
#
# Revision: 0
# Processed by: cddbd v1.5PL3 Copyright (c) Steve Scherf et al.
# Submitted via: ExactAudioCopy v0.95a3
#
DISCID=950bba0b
DTITLE=Sam Bush - King Of My World
DYEAR=2004
DGENRE=Bluegrass
TTITLE0=Puppies 'n Knapsacks
TTITLE1=A Better Man
TTITLE2=Eight More Miles To Louisville
TTITLE3=They're Gonna Miss Me When I'm Gone
TTITLE4=Bananas
TTITLE5=King Of The World
TTITLE6=Spirit Is The Journey
TTITLE7=Majestic
TTITLE8=Bless His Heart
TTITLE9=The Mahavishnu Mountain Boys
TTITLE10=The Wizard of Oz
EXTD=
EXTT0=
EXTT1=
EXTT2=
EXTT3=
EXTT4=
EXTT5=
EXTT6=
EXTT7=
EXTT8=
EXTT9=
EXTT10=
PLAYORDER=
